<svg width="2560" height="1440" viewBox="0 0 2560 1440" fill="none" xmlns="http://www.w3.org/2000/svg">
<rect width="2560" height="1440" fill="url(#paint0_linear_1_661)"/>
<circle cx="1277.65" cy="638.887" r="46.9591" fill="url(#paint1_linear_1_661)"/>
<path d="M1123.64 726.129V557.209L1199.98 605.949V686.291L1282.99 726.351L1357.99 686.291V608.397L1430.99 556.764V726.351L1281.88 815.373L1123.64 726.129Z" fill="url(#paint2_linear_1_661)"/>
<path d="M1344.64 584.361L1415.41 538.96L1281.21 461.066L1139.22 539.405L1213.77 584.361L1281.21 548.975L1344.64 584.361Z" fill="url(#paint3_linear_1_661)"/>
<path d="M823.56 926.934C822.856 926.934 822.312 926.742 821.928 926.358C821.544 925.91 821.352 925.366 821.352 924.726V862.038C821.352 861.334 821.544 860.79 821.928 860.406C822.312 859.958 822.856 859.734 823.56 859.734H828.456C829.16 859.734 829.704 859.958 830.088 860.406C830.536 860.79 830.76 861.334 830.76 862.038V888.534H863.784V862.038C863.784 861.334 863.976 860.79 864.36 860.406C864.808 859.958 865.352 859.734 865.992 859.734H870.888C871.592 859.734 872.136 859.958 872.52 860.406C872.968 860.79 873.192 861.334 873.192 862.038V924.726C873.192 925.366 872.968 925.91 872.52 926.358C872.136 926.742 871.592 926.934 870.888 926.934H865.992C865.352 926.934 864.808 926.742 864.36 926.358C863.976 925.91 863.784 925.366 863.784 924.726V897.174H830.76V924.726C830.76 925.366 830.536 925.91 830.088 926.358C829.704 926.742 829.16 926.934 828.456 926.934H823.56ZM908.414 927.894C901.822 927.894 896.574 925.878 892.67 921.846C888.766 917.75 886.622 912.182 886.238 905.142C886.174 904.31 886.142 903.254 886.142 901.974C886.142 900.63 886.174 899.542 886.238 898.71C886.494 894.166 887.55 890.198 889.406 886.806C891.262 883.35 893.79 880.694 896.99 878.838C900.254 876.982 904.062 876.054 908.414 876.054C913.278 876.054 917.342 877.078 920.606 879.126C923.934 881.174 926.462 884.086 928.19 887.862C929.918 891.638 930.781 896.054 930.781 901.11V902.742C930.781 903.446 930.558 903.99 930.11 904.374C929.726 904.758 929.214 904.95 928.574 904.95H895.358C895.358 905.014 895.358 905.142 895.358 905.334C895.358 905.526 895.358 905.686 895.358 905.814C895.486 908.438 896.062 910.902 897.086 913.206C898.11 915.446 899.582 917.27 901.502 918.678C903.422 920.086 905.726 920.79 908.414 920.79C910.718 920.79 912.638 920.438 914.174 919.734C915.71 919.03 916.958 918.262 917.918 917.43C918.878 916.534 919.518 915.862 919.838 915.414C920.414 914.582 920.862 914.102 921.182 913.974C921.502 913.782 922.014 913.686 922.718 913.686H927.326C927.966 913.686 928.478 913.878 928.862 914.262C929.31 914.582 929.502 915.062 929.438 915.702C929.374 916.662 928.862 917.846 927.902 919.254C926.942 920.598 925.566 921.942 923.774 923.286C921.982 924.63 919.806 925.75 917.246 926.646C914.686 927.478 911.742 927.894 908.414 927.894ZM895.358 898.326H921.662V898.038C921.662 895.158 921.118 892.598 920.03 890.358C919.006 888.118 917.502 886.358 915.518 885.078C913.534 883.734 911.166 883.062 908.414 883.062C905.662 883.062 903.294 883.734 901.31 885.078C899.39 886.358 897.918 888.118 896.894 890.358C895.87 892.598 895.358 895.158 895.358 898.038V898.326ZM956.18 927.894C952.98 927.894 950.068 927.254 947.444 925.974C944.82 924.694 942.708 922.966 941.108 920.79C939.508 918.614 938.708 916.15 938.708 913.398C938.708 908.982 940.5 905.462 944.084 902.838C947.668 900.214 952.34 898.486 958.1 897.654L972.404 895.638V892.854C972.404 889.782 971.508 887.382 969.716 885.654C967.988 883.926 965.14 883.062 961.172 883.062C958.292 883.062 955.956 883.638 954.164 884.79C952.436 885.942 951.22 887.414 950.516 889.206C950.132 890.166 949.46 890.646 948.5 890.646H944.18C943.476 890.646 942.932 890.454 942.548 890.07C942.228 889.622 942.068 889.11 942.068 888.534C942.068 887.574 942.42 886.39 943.124 884.982C943.892 883.574 945.044 882.198 946.58 880.854C948.116 879.51 950.068 878.39 952.436 877.494C954.868 876.534 957.812 876.054 961.268 876.054C965.108 876.054 968.34 876.566 970.964 877.59C973.588 878.55 975.636 879.862 977.108 881.526C978.644 883.19 979.732 885.078 980.372 887.19C981.076 889.302 981.428 891.446 981.428 893.622V924.726C981.428 925.366 981.204 925.91 980.756 926.358C980.372 926.742 979.86 926.934 979.22 926.934H974.804C974.1 926.934 973.556 926.742 973.172 926.358C972.788 925.91 972.596 925.366 972.596 924.726V920.598C971.764 921.75 970.644 922.902 969.236 924.054C967.828 925.142 966.068 926.07 963.956 926.838C961.844 927.542 959.252 927.894 956.18 927.894ZM958.196 920.694C960.82 920.694 963.22 920.15 965.396 919.062C967.572 917.91 969.268 916.15 970.484 913.782C971.764 911.414 972.404 908.438 972.404 904.854V902.166L961.268 903.798C956.724 904.438 953.3 905.526 950.996 907.062C948.692 908.534 947.54 910.422 947.54 912.726C947.54 914.518 948.052 916.022 949.076 917.238C950.164 918.39 951.508 919.254 953.108 919.83C954.772 920.406 956.468 920.694 958.196 920.694ZM997.533 926.934C996.893 926.934 996.349 926.742 995.901 926.358C995.517 925.91 995.325 925.366 995.325 924.726V860.982C995.325 860.342 995.517 859.83 995.901 859.446C996.349 858.998 996.893 858.774 997.533 858.774H1002.05C1002.75 858.774 1003.29 858.998 1003.68 859.446C1004.06 859.83 1004.25 860.342 1004.25 860.982V924.726C1004.25 925.366 1004.06 925.91 1003.68 926.358C1003.29 926.742 1002.75 926.934 1002.05 926.934H997.533ZM1038.06 926.934C1034.48 926.934 1031.56 926.262 1029.32 924.918C1027.08 923.51 1025.45 921.558 1024.43 919.062C1023.4 916.502 1022.89 913.494 1022.89 910.038V884.694H1015.4C1014.76 884.694 1014.22 884.502 1013.77 884.118C1013.39 883.67 1013.2 883.126 1013.2 882.486V879.222C1013.2 878.582 1013.39 878.07 1013.77 877.686C1014.22 877.238 1014.76 877.014 1015.4 877.014H1022.89V860.982C1022.89 860.342 1023.08 859.83 1023.47 859.446C1023.92 858.998 1024.46 858.774 1025.1 858.774H1029.61C1030.25 858.774 1030.76 858.998 1031.15 859.446C1031.6 859.83 1031.82 860.342 1031.82 860.982V877.014H1043.72C1044.36 877.014 1044.88 877.238 1045.26 877.686C1045.71 878.07 1045.93 878.582 1045.93 879.222V882.486C1045.93 883.126 1045.71 883.67 1045.26 884.118C1044.88 884.502 1044.36 884.694 1043.72 884.694H1031.82V909.366C1031.82 912.374 1032.33 914.742 1033.36 916.47C1034.38 918.198 1036.2 919.062 1038.83 919.062H1044.68C1045.32 919.062 1045.84 919.286 1046.22 919.734C1046.67 920.118 1046.89 920.63 1046.89 921.27V924.726C1046.89 925.366 1046.67 925.91 1046.22 926.358C1045.84 926.742 1045.32 926.934 1044.68 926.934H1038.06ZM1058.38 926.934C1057.74 926.934 1057.19 926.742 1056.74 926.358C1056.36 925.91 1056.17 925.366 1056.17 924.726V860.982C1056.17 860.342 1056.36 859.83 1056.74 859.446C1057.19 858.998 1057.74 858.774 1058.38 858.774H1063.18C1063.88 858.774 1064.42 858.998 1064.81 859.446C1065.19 859.83 1065.38 860.342 1065.38 860.982V883.35C1067.11 881.174 1069.22 879.414 1071.72 878.07C1074.22 876.726 1077.38 876.054 1081.22 876.054C1085.38 876.054 1088.9 876.982 1091.78 878.838C1094.73 880.63 1096.94 883.158 1098.41 886.422C1099.94 889.622 1100.71 893.366 1100.71 897.654V924.726C1100.71 925.366 1100.52 925.91 1100.14 926.358C1099.75 926.742 1099.21 926.934 1098.5 926.934H1093.7C1093.06 926.934 1092.52 926.742 1092.07 926.358C1091.69 925.91 1091.5 925.366 1091.5 924.726V898.134C1091.5 893.654 1090.41 890.166 1088.23 887.67C1086.06 885.11 1082.86 883.83 1078.63 883.83C1074.66 883.83 1071.46 885.11 1069.03 887.67C1066.6 890.166 1065.38 893.654 1065.38 898.134V924.726C1065.38 925.366 1065.19 925.91 1064.81 926.358C1064.42 926.742 1063.88 926.934 1063.18 926.934H1058.38ZM1141.56 926.934C1140.86 926.934 1140.31 926.742 1139.93 926.358C1139.54 925.91 1139.35 925.366 1139.35 924.726V862.038C1139.35 861.334 1139.54 860.79 1139.93 860.406C1140.31 859.958 1140.86 859.734 1141.56 859.734H1163.35C1169.94 859.734 1175.26 860.726 1179.29 862.71C1183.32 864.694 1186.26 867.638 1188.12 871.542C1189.98 875.382 1190.94 880.118 1191 885.75C1191.06 888.63 1191.1 891.158 1191.1 893.334C1191.1 895.51 1191.06 898.006 1191 900.822C1190.87 906.71 1189.88 911.606 1188.02 915.51C1186.23 919.35 1183.35 922.23 1179.38 924.15C1175.48 926.006 1170.3 926.934 1163.83 926.934H1141.56ZM1148.76 918.774H1163.35C1167.77 918.774 1171.29 918.166 1173.91 916.95C1176.54 915.734 1178.42 913.782 1179.58 911.094C1180.79 908.406 1181.43 904.854 1181.5 900.438C1181.62 898.518 1181.69 896.854 1181.69 895.446C1181.69 893.974 1181.69 892.534 1181.69 891.126C1181.69 889.654 1181.62 887.99 1181.5 886.134C1181.37 879.926 1179.9 875.35 1177.08 872.406C1174.26 869.398 1169.53 867.894 1162.87 867.894H1148.76V918.774ZM1218.21 927.894C1215.01 927.894 1212.1 927.254 1209.48 925.974C1206.85 924.694 1204.74 922.966 1203.14 920.79C1201.54 918.614 1200.74 916.15 1200.74 913.398C1200.74 908.982 1202.53 905.462 1206.12 902.838C1209.7 900.214 1214.37 898.486 1220.13 897.654L1234.44 895.638V892.854C1234.44 889.782 1233.54 887.382 1231.75 885.654C1230.02 883.926 1227.17 883.062 1223.2 883.062C1220.32 883.062 1217.99 883.638 1216.2 884.79C1214.47 885.942 1213.25 887.414 1212.55 889.206C1212.16 890.166 1211.49 890.646 1210.53 890.646H1206.21C1205.51 890.646 1204.96 890.454 1204.58 890.07C1204.26 889.622 1204.1 889.11 1204.1 888.534C1204.1 887.574 1204.45 886.39 1205.16 884.982C1205.92 883.574 1207.08 882.198 1208.61 880.854C1210.15 879.51 1212.1 878.39 1214.47 877.494C1216.9 876.534 1219.84 876.054 1223.3 876.054C1227.14 876.054 1230.37 876.566 1233 877.59C1235.62 878.55 1237.67 879.862 1239.14 881.526C1240.68 883.19 1241.76 885.078 1242.4 887.19C1243.11 889.302 1243.46 891.446 1243.46 893.622V924.726C1243.46 925.366 1243.24 925.91 1242.79 926.358C1242.4 926.742 1241.89 926.934 1241.25 926.934H1236.84C1236.13 926.934 1235.59 926.742 1235.2 926.358C1234.82 925.91 1234.63 925.366 1234.63 924.726V920.598C1233.8 921.75 1232.68 922.902 1231.27 924.054C1229.86 925.142 1228.1 926.07 1225.99 926.838C1223.88 927.542 1221.28 927.894 1218.21 927.894ZM1220.23 920.694C1222.85 920.694 1225.25 920.15 1227.43 919.062C1229.6 917.91 1231.3 916.15 1232.52 913.782C1233.8 911.414 1234.44 908.438 1234.44 904.854V902.166L1223.3 903.798C1218.76 904.438 1215.33 905.526 1213.03 907.062C1210.72 908.534 1209.57 910.422 1209.57 912.726C1209.57 914.518 1210.08 916.022 1211.11 917.238C1212.2 918.39 1213.54 919.254 1215.14 919.83C1216.8 920.406 1218.5 920.694 1220.23 920.694ZM1276.28 926.934C1272.7 926.934 1269.78 926.262 1267.54 924.918C1265.3 923.51 1263.67 921.558 1262.65 919.062C1261.62 916.502 1261.11 913.494 1261.11 910.038V884.694H1253.62C1252.98 884.694 1252.44 884.502 1251.99 884.118C1251.61 883.67 1251.42 883.126 1251.42 882.486V879.222C1251.42 878.582 1251.61 878.07 1251.99 877.686C1252.44 877.238 1252.98 877.014 1253.62 877.014H1261.11V860.982C1261.11 860.342 1261.3 859.83 1261.69 859.446C1262.14 858.998 1262.68 858.774 1263.32 858.774H1267.83C1268.47 858.774 1268.98 858.998 1269.37 859.446C1269.82 859.83 1270.04 860.342 1270.04 860.982V877.014H1281.94C1282.58 877.014 1283.1 877.238 1283.48 877.686C1283.93 878.07 1284.15 878.582 1284.15 879.222V882.486C1284.15 883.126 1283.93 883.67 1283.48 884.118C1283.1 884.502 1282.58 884.694 1281.94 884.694H1270.04V909.366C1270.04 912.374 1270.55 914.742 1271.58 916.47C1272.6 918.198 1274.42 919.062 1277.05 919.062H1282.9C1283.54 919.062 1284.06 919.286 1284.44 919.734C1284.89 920.118 1285.11 920.63 1285.11 921.27V924.726C1285.11 925.366 1284.89 925.91 1284.44 926.358C1284.06 926.742 1283.54 926.934 1282.9 926.934H1276.28ZM1308.21 927.894C1305.01 927.894 1302.1 927.254 1299.48 925.974C1296.85 924.694 1294.74 922.966 1293.14 920.79C1291.54 918.614 1290.74 916.15 1290.74 913.398C1290.74 908.982 1292.53 905.462 1296.12 902.838C1299.7 900.214 1304.37 898.486 1310.13 897.654L1324.44 895.638V892.854C1324.44 889.782 1323.54 887.382 1321.75 885.654C1320.02 883.926 1317.17 883.062 1313.2 883.062C1310.32 883.062 1307.99 883.638 1306.2 884.79C1304.47 885.942 1303.25 887.414 1302.55 889.206C1302.16 890.166 1301.49 890.646 1300.53 890.646H1296.21C1295.51 890.646 1294.96 890.454 1294.58 890.07C1294.26 889.622 1294.1 889.11 1294.1 888.534C1294.1 887.574 1294.45 886.39 1295.16 884.982C1295.92 883.574 1297.08 882.198 1298.61 880.854C1300.15 879.51 1302.1 878.39 1304.47 877.494C1306.9 876.534 1309.84 876.054 1313.3 876.054C1317.14 876.054 1320.37 876.566 1323 877.59C1325.62 878.55 1327.67 879.862 1329.14 881.526C1330.68 883.19 1331.76 885.078 1332.4 887.19C1333.11 889.302 1333.46 891.446 1333.46 893.622V924.726C1333.46 925.366 1333.24 925.91 1332.79 926.358C1332.4 926.742 1331.89 926.934 1331.25 926.934H1326.84C1326.13 926.934 1325.59 926.742 1325.2 926.358C1324.82 925.91 1324.63 925.366 1324.63 924.726V920.598C1323.8 921.75 1322.68 922.902 1321.27 924.054C1319.86 925.142 1318.1 926.07 1315.99 926.838C1313.88 927.542 1311.28 927.894 1308.21 927.894ZM1310.23 920.694C1312.85 920.694 1315.25 920.15 1317.43 919.062C1319.6 917.91 1321.3 916.15 1322.52 913.782C1323.8 911.414 1324.44 908.438 1324.44 904.854V902.166L1313.3 903.798C1308.76 904.438 1305.33 905.526 1303.03 907.062C1300.72 908.534 1299.57 910.422 1299.57 912.726C1299.57 914.518 1300.08 916.022 1301.11 917.238C1302.2 918.39 1303.54 919.254 1305.14 919.83C1306.8 920.406 1308.5 920.694 1310.23 920.694ZM1374.25 926.934C1373.54 926.934 1373 926.742 1372.62 926.358C1372.23 925.91 1372.04 925.366 1372.04 924.726V861.942C1372.04 861.302 1372.23 860.79 1372.62 860.406C1373 859.958 1373.54 859.734 1374.25 859.734H1379.34C1379.98 859.734 1380.49 859.958 1380.87 860.406C1381.32 860.79 1381.54 861.302 1381.54 861.942V924.726C1381.54 925.366 1381.32 925.91 1380.87 926.358C1380.49 926.742 1379.98 926.934 1379.34 926.934H1374.25ZM1399.25 926.934C1398.61 926.934 1398.07 926.742 1397.62 926.358C1397.23 925.91 1397.04 925.366 1397.04 924.726V879.222C1397.04 878.582 1397.23 878.07 1397.62 877.686C1398.07 877.238 1398.61 877.014 1399.25 877.014H1403.76C1404.4 877.014 1404.91 877.238 1405.3 877.686C1405.75 878.07 1405.97 878.582 1405.97 879.222V883.446C1407.63 881.27 1409.71 879.51 1412.21 878.166C1414.77 876.758 1418.03 876.054 1422 876.054C1426.16 876.054 1429.68 876.982 1432.56 878.838C1435.51 880.63 1437.71 883.158 1439.19 886.422C1440.66 889.622 1441.39 893.366 1441.39 897.654V924.726C1441.39 925.366 1441.2 925.91 1440.82 926.358C1440.43 926.742 1439.92 926.934 1439.28 926.934H1434.48C1433.84 926.934 1433.3 926.742 1432.85 926.358C1432.47 925.91 1432.27 925.366 1432.27 924.726V898.134C1432.27 893.654 1431.19 890.166 1429.01 887.67C1426.83 885.11 1423.63 883.83 1419.41 883.83C1415.44 883.83 1412.24 885.11 1409.81 887.67C1407.44 890.166 1406.26 893.654 1406.26 898.134V924.726C1406.26 925.366 1406.03 925.91 1405.59 926.358C1405.2 926.742 1404.69 926.934 1404.05 926.934H1399.25ZM1472.54 927.894C1468.96 927.894 1465.88 927.446 1463.32 926.55C1460.76 925.654 1458.68 924.566 1457.08 923.286C1455.48 922.006 1454.27 920.726 1453.44 919.446C1452.67 918.166 1452.25 917.142 1452.19 916.374C1452.12 915.67 1452.35 915.126 1452.86 914.742C1453.37 914.358 1453.88 914.166 1454.4 914.166H1458.62C1459 914.166 1459.29 914.23 1459.48 914.358C1459.74 914.422 1460.06 914.678 1460.44 915.126C1461.28 916.022 1462.2 916.918 1463.23 917.814C1464.25 918.71 1465.5 919.446 1466.97 920.022C1468.51 920.598 1470.4 920.886 1472.64 920.886C1475.9 920.886 1478.59 920.278 1480.7 919.062C1482.81 917.782 1483.87 915.926 1483.87 913.494C1483.87 911.894 1483.42 910.614 1482.52 909.654C1481.69 908.694 1480.16 907.83 1477.92 907.062C1475.74 906.294 1472.73 905.494 1468.89 904.662C1465.05 903.766 1462.01 902.678 1459.77 901.398C1457.53 900.054 1455.93 898.486 1454.97 896.694C1454.01 894.838 1453.53 892.758 1453.53 890.454C1453.53 888.086 1454.24 885.814 1455.64 883.638C1457.05 881.398 1459.1 879.574 1461.79 878.166C1464.54 876.758 1467.96 876.054 1472.06 876.054C1475.39 876.054 1478.24 876.47 1480.6 877.302C1482.97 878.134 1484.92 879.19 1486.46 880.47C1488 881.686 1489.15 882.902 1489.92 884.118C1490.68 885.334 1491.1 886.358 1491.16 887.19C1491.23 887.83 1491.04 888.374 1490.59 888.822C1490.14 889.206 1489.63 889.398 1489.05 889.398H1485.02C1484.57 889.398 1484.19 889.302 1483.87 889.11C1483.61 888.918 1483.36 888.694 1483.1 888.438C1482.46 887.606 1481.69 886.774 1480.8 885.942C1479.96 885.11 1478.84 884.438 1477.44 883.926C1476.09 883.35 1474.3 883.062 1472.06 883.062C1468.86 883.062 1466.46 883.734 1464.86 885.078C1463.26 886.422 1462.46 888.118 1462.46 890.166C1462.46 891.382 1462.81 892.47 1463.52 893.43C1464.22 894.39 1465.56 895.254 1467.55 896.022C1469.53 896.79 1472.48 897.622 1476.38 898.518C1480.6 899.35 1483.93 900.47 1486.36 901.878C1488.8 903.286 1490.52 904.918 1491.55 906.774C1492.57 908.63 1493.08 910.774 1493.08 913.206C1493.08 915.894 1492.28 918.358 1490.68 920.598C1489.15 922.838 1486.84 924.63 1483.77 925.974C1480.76 927.254 1477.02 927.894 1472.54 927.894ZM1506.41 926.934C1505.77 926.934 1505.22 926.742 1504.77 926.358C1504.39 925.91 1504.2 925.366 1504.2 924.726V879.222C1504.2 878.582 1504.39 878.07 1504.77 877.686C1505.22 877.238 1505.77 877.014 1506.41 877.014H1511.01C1511.65 877.014 1512.17 877.238 1512.55 877.686C1512.93 878.07 1513.13 878.582 1513.13 879.222V924.726C1513.13 925.366 1512.93 925.91 1512.55 926.358C1512.17 926.742 1511.65 926.934 1511.01 926.934H1506.41ZM1505.64 867.702C1505 867.702 1504.45 867.51 1504.01 867.126C1503.62 866.678 1503.43 866.134 1503.43 865.494V860.31C1503.43 859.67 1503.62 859.158 1504.01 858.774C1504.45 858.326 1505 858.102 1505.64 858.102H1511.69C1512.33 858.102 1512.84 858.326 1513.22 858.774C1513.67 859.158 1513.89 859.67 1513.89 860.31V865.494C1513.89 866.134 1513.67 866.678 1513.22 867.126C1512.84 867.51 1512.33 867.702 1511.69 867.702H1505.64ZM1547.9 948.054C1543.54 948.054 1539.96 947.478 1537.14 946.326C1534.39 945.174 1532.22 943.766 1530.62 942.102C1529.08 940.502 1527.96 938.87 1527.26 937.206C1526.62 935.606 1526.26 934.326 1526.2 933.366C1526.14 932.726 1526.33 932.182 1526.78 931.734C1527.29 931.286 1527.83 931.062 1528.41 931.062H1533.02C1533.59 931.062 1534.07 931.19 1534.46 931.446C1534.84 931.702 1535.16 932.246 1535.42 933.078C1535.8 934.038 1536.38 935.094 1537.14 936.246C1537.91 937.462 1539.1 938.486 1540.7 939.318C1542.3 940.214 1544.54 940.662 1547.42 940.662C1550.42 940.662 1552.95 940.246 1555 939.414C1557.05 938.646 1558.58 937.238 1559.61 935.19C1560.7 933.206 1561.24 930.454 1561.24 926.934V920.406C1559.7 922.39 1557.69 924.054 1555.19 925.398C1552.7 926.678 1549.56 927.318 1545.78 927.318C1542.2 927.318 1539.13 926.71 1536.57 925.494C1534.01 924.214 1531.9 922.518 1530.23 920.406C1528.63 918.23 1527.42 915.766 1526.58 913.014C1525.82 910.262 1525.37 907.382 1525.24 904.374C1525.18 902.582 1525.18 900.822 1525.24 899.094C1525.37 896.086 1525.82 893.206 1526.58 890.454C1527.42 887.702 1528.63 885.238 1530.23 883.062C1531.9 880.886 1534.01 879.19 1536.57 877.974C1539.13 876.694 1542.2 876.054 1545.78 876.054C1549.62 876.054 1552.79 876.79 1555.29 878.262C1557.85 879.67 1559.93 881.398 1561.53 883.446V879.318C1561.53 878.678 1561.72 878.134 1562.1 877.686C1562.55 877.238 1563.1 877.014 1563.74 877.014H1568.15C1568.79 877.014 1569.34 877.238 1569.78 877.686C1570.23 878.134 1570.46 878.678 1570.46 879.318V925.878C1570.46 930.166 1569.72 933.974 1568.25 937.302C1566.84 940.63 1564.47 943.254 1561.14 945.174C1557.88 947.094 1553.46 948.054 1547.9 948.054ZM1547.7 919.638C1550.9 919.638 1553.46 918.902 1555.38 917.43C1557.37 915.958 1558.81 914.102 1559.7 911.862C1560.66 909.622 1561.18 907.35 1561.24 905.046C1561.3 904.15 1561.34 903.062 1561.34 901.782C1561.34 900.438 1561.3 899.318 1561.24 898.422C1561.18 896.118 1560.66 893.846 1559.7 891.606C1558.81 889.366 1557.37 887.51 1555.38 886.038C1553.46 884.566 1550.9 883.83 1547.7 883.83C1544.5 883.83 1541.94 884.566 1540.02 886.038C1538.1 887.446 1536.73 889.334 1535.9 891.702C1535.06 894.006 1534.58 896.502 1534.46 899.19C1534.39 900.854 1534.39 902.55 1534.46 904.278C1534.58 906.966 1535.06 909.494 1535.9 911.862C1536.73 914.166 1538.1 916.054 1540.02 917.526C1541.94 918.934 1544.5 919.638 1547.7 919.638ZM1587.03 926.934C1586.39 926.934 1585.85 926.742 1585.4 926.358C1585.02 925.91 1584.83 925.366 1584.83 924.726V860.982C1584.83 860.342 1585.02 859.83 1585.4 859.446C1585.85 858.998 1586.39 858.774 1587.03 858.774H1591.83C1592.54 858.774 1593.08 858.998 1593.47 859.446C1593.85 859.83 1594.04 860.342 1594.04 860.982V883.35C1595.77 881.174 1597.88 879.414 1600.38 878.07C1602.87 876.726 1606.04 876.054 1609.88 876.054C1614.04 876.054 1617.56 876.982 1620.44 878.838C1623.39 880.63 1625.59 883.158 1627.07 886.422C1628.6 889.622 1629.37 893.366 1629.37 897.654V924.726C1629.37 925.366 1629.18 925.91 1628.79 926.358C1628.41 926.742 1627.87 926.934 1627.16 926.934H1622.36C1621.72 926.934 1621.18 926.742 1620.73 926.358C1620.35 925.91 1620.15 925.366 1620.15 924.726V898.134C1620.15 893.654 1619.07 890.166 1616.89 887.67C1614.71 885.11 1611.51 883.83 1607.29 883.83C1603.32 883.83 1600.12 885.11 1597.69 887.67C1595.26 890.166 1594.04 893.654 1594.04 898.134V924.726C1594.04 925.366 1593.85 925.91 1593.47 926.358C1593.08 926.742 1592.54 926.934 1591.83 926.934H1587.03ZM1662.06 926.934C1658.48 926.934 1655.56 926.262 1653.32 924.918C1651.08 923.51 1649.45 921.558 1648.43 919.062C1647.4 916.502 1646.89 913.494 1646.89 910.038V884.694H1639.4C1638.76 884.694 1638.22 884.502 1637.77 884.118C1637.39 883.67 1637.2 883.126 1637.2 882.486V879.222C1637.2 878.582 1637.39 878.07 1637.77 877.686C1638.22 877.238 1638.76 877.014 1639.4 877.014H1646.89V860.982C1646.89 860.342 1647.08 859.83 1647.47 859.446C1647.92 858.998 1648.46 858.774 1649.1 858.774H1653.61C1654.25 858.774 1654.76 858.998 1655.15 859.446C1655.6 859.83 1655.82 860.342 1655.82 860.982V877.014H1667.72C1668.36 877.014 1668.88 877.238 1669.26 877.686C1669.71 878.07 1669.93 878.582 1669.93 879.222V882.486C1669.93 883.126 1669.71 883.67 1669.26 884.118C1668.88 884.502 1668.36 884.694 1667.72 884.694H1655.82V909.366C1655.82 912.374 1656.33 914.742 1657.36 916.47C1658.38 918.198 1660.2 919.062 1662.83 919.062H1668.68C1669.32 919.062 1669.84 919.286 1670.22 919.734C1670.67 920.118 1670.89 920.63 1670.89 921.27V924.726C1670.89 925.366 1670.67 925.91 1670.22 926.358C1669.84 926.742 1669.32 926.934 1668.68 926.934H1662.06ZM1697.35 927.894C1693.77 927.894 1690.7 927.446 1688.14 926.55C1685.58 925.654 1683.5 924.566 1681.9 923.286C1680.3 922.006 1679.08 920.726 1678.25 919.446C1677.48 918.166 1677.06 917.142 1677 916.374C1676.94 915.67 1677.16 915.126 1677.67 914.742C1678.18 914.358 1678.7 914.166 1679.21 914.166H1683.43C1683.82 914.166 1684.1 914.23 1684.3 914.358C1684.55 914.422 1684.87 914.678 1685.26 915.126C1686.09 916.022 1687.02 916.918 1688.04 917.814C1689.06 918.71 1690.31 919.446 1691.78 920.022C1693.32 920.598 1695.21 920.886 1697.45 920.886C1700.71 920.886 1703.4 920.278 1705.51 919.062C1707.62 917.782 1708.68 915.926 1708.68 913.494C1708.68 911.894 1708.23 910.614 1707.34 909.654C1706.5 908.694 1704.97 907.83 1702.73 907.062C1700.55 906.294 1697.54 905.494 1693.7 904.662C1689.86 903.766 1686.82 902.678 1684.58 901.398C1682.34 900.054 1680.74 898.486 1679.78 896.694C1678.82 894.838 1678.34 892.758 1678.34 890.454C1678.34 888.086 1679.05 885.814 1680.46 883.638C1681.86 881.398 1683.91 879.574 1686.6 878.166C1689.35 876.758 1692.78 876.054 1696.87 876.054C1700.2 876.054 1703.05 876.47 1705.42 877.302C1707.78 878.134 1709.74 879.19 1711.27 880.47C1712.81 881.686 1713.96 882.902 1714.73 884.118C1715.5 885.334 1715.91 886.358 1715.98 887.19C1716.04 887.83 1715.85 888.374 1715.4 888.822C1714.95 889.206 1714.44 889.398 1713.86 889.398H1709.83C1709.38 889.398 1709 889.302 1708.68 889.11C1708.42 888.918 1708.17 888.694 1707.91 888.438C1707.27 887.606 1706.5 886.774 1705.61 885.942C1704.78 885.11 1703.66 884.438 1702.25 883.926C1700.9 883.35 1699.11 883.062 1696.87 883.062C1693.67 883.062 1691.27 883.734 1689.67 885.078C1688.07 886.422 1687.27 888.118 1687.27 890.166C1687.27 891.382 1687.62 892.47 1688.33 893.43C1689.03 894.39 1690.38 895.254 1692.36 896.022C1694.34 896.79 1697.29 897.622 1701.19 898.518C1705.42 899.35 1708.74 900.47 1711.18 901.878C1713.61 903.286 1715.34 904.918 1716.36 906.774C1717.38 908.63 1717.9 910.774 1717.9 913.206C1717.9 915.894 1717.1 918.358 1715.5 920.598C1713.96 922.838 1711.66 924.63 1708.58 925.974C1705.58 927.254 1701.83 927.894 1697.35 927.894Z" fill="#E6EEFF"/>
<path d="M1730.55 926.934C1729.91 926.934 1729.36 926.742 1728.91 926.358C1728.53 925.91 1728.34 925.366 1728.34 924.726V917.814C1728.34 917.174 1728.53 916.662 1728.91 916.278C1729.36 915.83 1729.91 915.606 1730.55 915.606H1737.46C1738.1 915.606 1738.61 915.83 1738.99 916.278C1739.44 916.662 1739.67 917.174 1739.67 917.814V924.726C1739.67 925.366 1739.44 925.91 1738.99 926.358C1738.61 926.742 1738.1 926.934 1737.46 926.934H1730.55Z" fill="url(#paint4_linear_1_661)"/>
<path d="M1018.47 1004C1018.23 1004 1018.02 1003.93 1017.86 1003.78C1017.71 1003.62 1017.64 1003.41 1017.64 1003.17V982.004H1010.73C1010.49 982.004 1010.28 981.932 1010.12 981.788C1009.97 981.62 1009.9 981.416 1009.9 981.176V979.664C1009.9 979.4 1009.97 979.196 1010.12 979.052C1010.28 978.884 1010.49 978.8 1010.73 978.8H1028.08C1028.34 978.8 1028.55 978.884 1028.69 979.052C1028.86 979.196 1028.94 979.4 1028.94 979.664V981.176C1028.94 981.416 1028.86 981.62 1028.69 981.788C1028.55 981.932 1028.34 982.004 1028.08 982.004H1021.2V1003.17C1021.2 1003.41 1021.12 1003.62 1020.95 1003.78C1020.81 1003.93 1020.6 1004 1020.34 1004H1018.47ZM1030.42 1004C1030.18 1004 1029.98 1003.93 1029.81 1003.78C1029.67 1003.62 1029.59 1003.41 1029.59 1003.17V986.144C1029.59 985.904 1029.67 985.7 1029.81 985.532C1029.98 985.364 1030.18 985.28 1030.42 985.28H1032.08C1032.32 985.28 1032.52 985.364 1032.69 985.532C1032.86 985.7 1032.94 985.904 1032.94 986.144V987.728C1033.42 986.912 1034.08 986.3 1034.92 985.892C1035.76 985.484 1036.77 985.28 1037.95 985.28H1039.39C1039.63 985.28 1039.82 985.364 1039.96 985.532C1040.11 985.676 1040.18 985.868 1040.18 986.108V987.584C1040.18 987.824 1040.11 988.016 1039.96 988.16C1039.82 988.304 1039.63 988.376 1039.39 988.376H1037.23C1035.93 988.376 1034.91 988.76 1034.17 989.528C1033.42 990.272 1033.05 991.292 1033.05 992.588V1003.17C1033.05 1003.41 1032.97 1003.62 1032.8 1003.78C1032.63 1003.93 1032.43 1004 1032.19 1004H1030.42ZM1048.21 1004.36C1047.01 1004.36 1045.92 1004.12 1044.93 1003.64C1043.95 1003.16 1043.16 1002.51 1042.56 1001.7C1041.96 1000.88 1041.66 999.956 1041.66 998.924C1041.66 997.268 1042.33 995.948 1043.67 994.964C1045.02 993.98 1046.77 993.332 1048.93 993.02L1054.29 992.264V991.22C1054.29 990.068 1053.96 989.168 1053.28 988.52C1052.64 987.872 1051.57 987.548 1050.08 987.548C1049 987.548 1048.12 987.764 1047.45 988.196C1046.8 988.628 1046.35 989.18 1046.08 989.852C1045.94 990.212 1045.69 990.392 1045.33 990.392H1043.71C1043.44 990.392 1043.24 990.32 1043.1 990.176C1042.98 990.008 1042.92 989.816 1042.92 989.6C1042.92 989.24 1043.05 988.796 1043.31 988.268C1043.6 987.74 1044.03 987.224 1044.61 986.72C1045.18 986.216 1045.92 985.796 1046.8 985.46C1047.72 985.1 1048.82 984.92 1050.12 984.92C1051.56 984.92 1052.77 985.112 1053.75 985.496C1054.74 985.856 1055.5 986.348 1056.06 986.972C1056.63 987.596 1057.04 988.304 1057.28 989.096C1057.54 989.888 1057.68 990.692 1057.68 991.508V1003.17C1057.68 1003.41 1057.59 1003.62 1057.42 1003.78C1057.28 1003.93 1057.09 1004 1056.85 1004H1055.19C1054.93 1004 1054.72 1003.93 1054.58 1003.78C1054.44 1003.62 1054.36 1003.41 1054.36 1003.17V1001.62C1054.05 1002.06 1053.63 1002.49 1053.1 1002.92C1052.58 1003.33 1051.92 1003.68 1051.12 1003.96C1050.33 1004.23 1049.36 1004.36 1048.21 1004.36ZM1048.96 1001.66C1049.95 1001.66 1050.85 1001.46 1051.66 1001.05C1052.48 1000.62 1053.12 999.956 1053.57 999.068C1054.05 998.18 1054.29 997.064 1054.29 995.72V994.712L1050.12 995.324C1048.41 995.564 1047.13 995.972 1046.26 996.548C1045.4 997.1 1044.97 997.808 1044.97 998.672C1044.97 999.344 1045.16 999.908 1045.54 1000.36C1045.95 1000.8 1046.46 1001.12 1047.06 1001.34C1047.68 1001.55 1048.32 1001.66 1048.96 1001.66ZM1063.68 1004C1063.44 1004 1063.24 1003.93 1063.07 1003.78C1062.92 1003.62 1062.85 1003.41 1062.85 1003.17V986.108C1062.85 985.868 1062.92 985.676 1063.07 985.532C1063.24 985.364 1063.44 985.28 1063.68 985.28H1065.37C1065.61 985.28 1065.8 985.364 1065.95 985.532C1066.12 985.676 1066.2 985.868 1066.2 986.108V987.692C1066.82 986.876 1067.6 986.216 1068.54 985.712C1069.5 985.184 1070.72 984.92 1072.21 984.92C1073.77 984.92 1075.09 985.268 1076.17 985.964C1077.28 986.636 1078.1 987.584 1078.66 988.808C1079.21 990.008 1079.48 991.412 1079.48 993.02V1003.17C1079.48 1003.41 1079.41 1003.62 1079.27 1003.78C1079.12 1003.93 1078.93 1004 1078.69 1004H1076.89C1076.65 1004 1076.45 1003.93 1076.28 1003.78C1076.14 1003.62 1076.06 1003.41 1076.06 1003.17V993.2C1076.06 991.52 1075.66 990.212 1074.84 989.276C1074.02 988.316 1072.82 987.836 1071.24 987.836C1069.75 987.836 1068.55 988.316 1067.64 989.276C1066.75 990.212 1066.31 991.52 1066.31 993.2V1003.17C1066.31 1003.41 1066.22 1003.62 1066.06 1003.78C1065.91 1003.93 1065.72 1004 1065.48 1004H1063.68ZM1091.16 1004.36C1089.82 1004.36 1088.67 1004.19 1087.71 1003.86C1086.75 1003.52 1085.97 1003.11 1085.37 1002.63C1084.77 1002.15 1084.31 1001.67 1084 1001.19C1083.71 1000.71 1083.56 1000.33 1083.53 1000.04C1083.51 999.776 1083.59 999.572 1083.78 999.428C1083.98 999.284 1084.17 999.212 1084.36 999.212H1085.94C1086.09 999.212 1086.2 999.236 1086.27 999.284C1086.36 999.308 1086.48 999.404 1086.63 999.572C1086.94 999.908 1087.29 1000.24 1087.67 1000.58C1088.06 1000.92 1088.52 1001.19 1089.08 1001.41C1089.65 1001.62 1090.36 1001.73 1091.2 1001.73C1092.42 1001.73 1093.43 1001.5 1094.22 1001.05C1095.02 1000.57 1095.41 999.872 1095.41 998.96C1095.41 998.36 1095.24 997.88 1094.91 997.52C1094.6 997.16 1094.02 996.836 1093.18 996.548C1092.36 996.26 1091.24 995.96 1089.8 995.648C1088.36 995.312 1087.22 994.904 1086.38 994.424C1085.54 993.92 1084.94 993.332 1084.58 992.66C1084.22 991.964 1084.04 991.184 1084.04 990.32C1084.04 989.432 1084.3 988.58 1084.83 987.764C1085.36 986.924 1086.12 986.24 1087.13 985.712C1088.16 985.184 1089.45 984.92 1090.98 984.92C1092.23 984.92 1093.3 985.076 1094.19 985.388C1095.08 985.7 1095.81 986.096 1096.38 986.576C1096.96 987.032 1097.39 987.488 1097.68 987.944C1097.97 988.4 1098.12 988.784 1098.15 989.096C1098.17 989.336 1098.1 989.54 1097.93 989.708C1097.76 989.852 1097.57 989.924 1097.36 989.924H1095.84C1095.68 989.924 1095.53 989.888 1095.41 989.816C1095.32 989.744 1095.22 989.66 1095.12 989.564C1094.88 989.252 1094.6 988.94 1094.26 988.628C1093.95 988.316 1093.53 988.064 1093 987.872C1092.5 987.656 1091.82 987.548 1090.98 987.548C1089.78 987.548 1088.88 987.8 1088.28 988.304C1087.68 988.808 1087.38 989.444 1087.38 990.212C1087.38 990.668 1087.52 991.076 1087.78 991.436C1088.04 991.796 1088.55 992.12 1089.29 992.408C1090.04 992.696 1091.14 993.008 1092.6 993.344C1094.19 993.656 1095.44 994.076 1096.35 994.604C1097.26 995.132 1097.91 995.744 1098.29 996.44C1098.68 997.136 1098.87 997.94 1098.87 998.852C1098.87 999.86 1098.57 1000.78 1097.97 1001.62C1097.39 1002.46 1096.53 1003.14 1095.38 1003.64C1094.25 1004.12 1092.84 1004.36 1091.16 1004.36ZM1105.7 1004C1105.46 1004 1105.26 1003.93 1105.09 1003.78C1104.94 1003.62 1104.87 1003.41 1104.87 1003.17V988.16H1101.81C1101.57 988.16 1101.37 988.088 1101.2 987.944C1101.06 987.776 1100.98 987.572 1100.98 987.332V986.108C1100.98 985.868 1101.06 985.676 1101.2 985.532C1101.37 985.364 1101.57 985.28 1101.81 985.28H1104.87V983.48C1104.87 982.256 1105.08 981.188 1105.48 980.276C1105.89 979.34 1106.54 978.62 1107.43 978.116C1108.34 977.612 1109.55 977.36 1111.06 977.36H1113.22C1113.46 977.36 1113.66 977.444 1113.8 977.612C1113.94 977.756 1114.02 977.948 1114.02 978.188V979.412C1114.02 979.652 1113.94 979.856 1113.8 980.024C1113.66 980.168 1113.46 980.24 1113.22 980.24H1111.14C1110.01 980.24 1109.24 980.54 1108.83 981.14C1108.42 981.716 1108.22 982.556 1108.22 983.66V985.28H1112.86C1113.1 985.28 1113.3 985.364 1113.44 985.532C1113.58 985.676 1113.66 985.868 1113.66 986.108V987.332C1113.66 987.572 1113.58 987.776 1113.44 987.944C1113.3 988.088 1113.1 988.16 1112.86 988.16H1108.22V1003.17C1108.22 1003.41 1108.14 1003.62 1107.97 1003.78C1107.82 1003.93 1107.63 1004 1107.39 1004H1105.7ZM1124.17 1004.36C1122.34 1004.36 1120.82 1004.01 1119.6 1003.32C1118.37 1002.62 1117.44 1001.66 1116.79 1000.44C1116.14 999.188 1115.78 997.772 1115.71 996.188C1115.68 995.78 1115.67 995.264 1115.67 994.64C1115.67 993.992 1115.68 993.476 1115.71 993.092C1115.78 991.484 1116.14 990.068 1116.79 988.844C1117.46 987.62 1118.41 986.66 1119.63 985.964C1120.86 985.268 1122.37 984.92 1124.17 984.92C1125.97 984.92 1127.48 985.268 1128.7 985.964C1129.93 986.66 1130.86 987.62 1131.51 988.844C1132.18 990.068 1132.56 991.484 1132.63 993.092C1132.65 993.476 1132.66 993.992 1132.66 994.64C1132.66 995.264 1132.65 995.78 1132.63 996.188C1132.56 997.772 1132.2 999.188 1131.55 1000.44C1130.9 1001.66 1129.96 1002.62 1128.74 1003.32C1127.52 1004.01 1125.99 1004.36 1124.17 1004.36ZM1124.17 1001.59C1125.66 1001.59 1126.84 1001.12 1127.73 1000.18C1128.62 999.224 1129.1 997.832 1129.17 996.008C1129.2 995.648 1129.21 995.192 1129.21 994.64C1129.21 994.088 1129.2 993.632 1129.17 993.272C1129.1 991.448 1128.62 990.068 1127.73 989.132C1126.84 988.172 1125.66 987.692 1124.17 987.692C1122.68 987.692 1121.48 988.172 1120.57 989.132C1119.68 990.068 1119.21 991.448 1119.16 993.272C1119.14 993.632 1119.13 994.088 1119.13 994.64C1119.13 995.192 1119.14 995.648 1119.16 996.008C1119.21 997.832 1119.68 999.224 1120.57 1000.18C1121.48 1001.12 1122.68 1001.59 1124.17 1001.59ZM1138 1004C1137.76 1004 1137.56 1003.93 1137.39 1003.78C1137.24 1003.62 1137.17 1003.41 1137.17 1003.17V986.144C1137.17 985.904 1137.24 985.7 1137.39 985.532C1137.56 985.364 1137.76 985.28 1138 985.28H1139.66C1139.9 985.28 1140.1 985.364 1140.27 985.532C1140.44 985.7 1140.52 985.904 1140.52 986.144V987.728C1141 986.912 1141.66 986.3 1142.5 985.892C1143.34 985.484 1144.35 985.28 1145.52 985.28H1146.96C1147.2 985.28 1147.4 985.364 1147.54 985.532C1147.68 985.676 1147.76 985.868 1147.76 986.108V987.584C1147.76 987.824 1147.68 988.016 1147.54 988.16C1147.4 988.304 1147.2 988.376 1146.96 988.376H1144.8C1143.51 988.376 1142.49 988.76 1141.74 989.528C1141 990.272 1140.63 991.292 1140.63 992.588V1003.17C1140.63 1003.41 1140.54 1003.62 1140.38 1003.78C1140.21 1003.93 1140 1004 1139.76 1004H1138ZM1151.68 1004C1151.44 1004 1151.23 1003.93 1151.06 1003.78C1150.92 1003.62 1150.85 1003.41 1150.85 1003.17V986.108C1150.85 985.868 1150.92 985.676 1151.06 985.532C1151.23 985.364 1151.44 985.28 1151.68 985.28H1153.3C1153.54 985.28 1153.73 985.364 1153.87 985.532C1154.04 985.676 1154.12 985.868 1154.12 986.108V987.368C1154.68 986.624 1155.37 986.036 1156.21 985.604C1157.05 985.148 1158.06 984.92 1159.24 984.92C1161.95 984.896 1163.87 986 1165 988.232C1165.55 987.224 1166.35 986.42 1167.41 985.82C1168.46 985.22 1169.66 984.92 1171.01 984.92C1172.26 984.92 1173.38 985.208 1174.39 985.784C1175.42 986.36 1176.23 987.236 1176.8 988.412C1177.4 989.564 1177.7 991.016 1177.7 992.768V1003.17C1177.7 1003.41 1177.62 1003.62 1177.45 1003.78C1177.31 1003.93 1177.12 1004 1176.88 1004H1175.18C1174.94 1004 1174.74 1003.93 1174.57 1003.78C1174.43 1003.62 1174.36 1003.41 1174.36 1003.17V993.092C1174.36 991.748 1174.16 990.692 1173.78 989.924C1173.4 989.156 1172.88 988.616 1172.23 988.304C1171.58 987.992 1170.88 987.836 1170.11 987.836C1169.48 987.836 1168.85 987.992 1168.2 988.304C1167.55 988.616 1167.01 989.156 1166.58 989.924C1166.17 990.692 1165.97 991.748 1165.97 993.092V1003.17C1165.97 1003.41 1165.88 1003.62 1165.72 1003.78C1165.57 1003.93 1165.38 1004 1165.14 1004H1163.45C1163.21 1004 1163 1003.93 1162.84 1003.78C1162.69 1003.62 1162.62 1003.41 1162.62 1003.17V993.092C1162.62 991.748 1162.42 990.692 1162.01 989.924C1161.6 989.156 1161.07 988.616 1160.42 988.304C1159.78 987.992 1159.09 987.836 1158.37 987.836C1157.75 987.836 1157.11 987.992 1156.46 988.304C1155.82 988.616 1155.28 989.156 1154.84 989.924C1154.44 990.692 1154.23 991.736 1154.23 993.056V1003.17C1154.23 1003.41 1154.15 1003.62 1153.98 1003.78C1153.84 1003.93 1153.64 1004 1153.4 1004H1151.68ZM1188.06 1004.36C1186.86 1004.36 1185.77 1004.12 1184.78 1003.64C1183.8 1003.16 1183.01 1002.51 1182.41 1001.7C1181.81 1000.88 1181.51 999.956 1181.51 998.924C1181.51 997.268 1182.18 995.948 1183.52 994.964C1184.87 993.98 1186.62 993.332 1188.78 993.02L1194.14 992.264V991.22C1194.14 990.068 1193.81 989.168 1193.14 988.52C1192.49 987.872 1191.42 987.548 1189.93 987.548C1188.85 987.548 1187.98 987.764 1187.3 988.196C1186.66 988.628 1186.2 989.18 1185.94 989.852C1185.79 990.212 1185.54 990.392 1185.18 990.392H1183.56C1183.3 990.392 1183.09 990.32 1182.95 990.176C1182.83 990.008 1182.77 989.816 1182.77 989.6C1182.77 989.24 1182.9 988.796 1183.16 988.268C1183.45 987.74 1183.88 987.224 1184.46 986.72C1185.04 986.216 1185.77 985.796 1186.66 985.46C1187.57 985.1 1188.67 984.92 1189.97 984.92C1191.41 984.92 1192.62 985.112 1193.6 985.496C1194.59 985.856 1195.36 986.348 1195.91 986.972C1196.48 987.596 1196.89 988.304 1197.13 989.096C1197.4 989.888 1197.53 990.692 1197.53 991.508V1003.17C1197.53 1003.41 1197.44 1003.62 1197.28 1003.78C1197.13 1003.93 1196.94 1004 1196.7 1004H1195.04C1194.78 1004 1194.58 1003.93 1194.43 1003.78C1194.29 1003.62 1194.22 1003.41 1194.22 1003.17V1001.62C1193.9 1002.06 1193.48 1002.49 1192.96 1002.92C1192.43 1003.33 1191.77 1003.68 1190.98 1003.96C1190.18 1004.23 1189.21 1004.36 1188.06 1004.36ZM1188.82 1001.66C1189.8 1001.66 1190.7 1001.46 1191.52 1001.05C1192.33 1000.62 1192.97 999.956 1193.42 999.068C1193.9 998.18 1194.14 997.064 1194.14 995.72V994.712L1189.97 995.324C1188.26 995.564 1186.98 995.972 1186.12 996.548C1185.25 997.1 1184.82 997.808 1184.82 998.672C1184.82 999.344 1185.01 999.908 1185.4 1000.36C1185.8 1000.8 1186.31 1001.12 1186.91 1001.34C1187.53 1001.55 1188.17 1001.66 1188.82 1001.66ZM1203.53 1004C1203.29 1004 1203.09 1003.93 1202.92 1003.78C1202.78 1003.62 1202.7 1003.41 1202.7 1003.17V986.108C1202.7 985.868 1202.78 985.676 1202.92 985.532C1203.09 985.364 1203.29 985.28 1203.53 985.28H1205.22C1205.46 985.28 1205.66 985.364 1205.8 985.532C1205.97 985.676 1206.05 985.868 1206.05 986.108V987.692C1206.68 986.876 1207.46 986.216 1208.39 985.712C1209.35 985.184 1210.58 984.92 1212.06 984.92C1213.62 984.92 1214.94 985.268 1216.02 985.964C1217.13 986.636 1217.96 987.584 1218.51 988.808C1219.06 990.008 1219.34 991.412 1219.34 993.02V1003.17C1219.34 1003.41 1219.26 1003.62 1219.12 1003.78C1218.98 1003.93 1218.78 1004 1218.54 1004H1216.74C1216.5 1004 1216.3 1003.93 1216.13 1003.78C1215.99 1003.62 1215.92 1003.41 1215.92 1003.17V993.2C1215.92 991.52 1215.51 990.212 1214.69 989.276C1213.88 988.316 1212.68 987.836 1211.09 987.836C1209.6 987.836 1208.4 988.316 1207.49 989.276C1206.6 990.212 1206.16 991.52 1206.16 993.2V1003.17C1206.16 1003.41 1206.08 1003.62 1205.91 1003.78C1205.76 1003.93 1205.57 1004 1205.33 1004H1203.53ZM1231.38 1004.36C1230.06 1004.36 1228.92 1004.13 1227.96 1003.68C1227 1003.2 1226.2 1002.56 1225.58 1001.77C1224.98 1000.95 1224.52 1000.03 1224.21 998.996C1223.92 997.964 1223.76 996.872 1223.71 995.72C1223.68 995.336 1223.67 994.976 1223.67 994.64C1223.67 994.304 1223.68 993.944 1223.71 993.56C1223.76 992.432 1223.92 991.352 1224.21 990.32C1224.52 989.288 1224.98 988.364 1225.58 987.548C1226.2 986.732 1227 986.096 1227.96 985.64C1228.92 985.16 1230.06 984.92 1231.38 984.92C1232.79 984.92 1233.97 985.172 1234.9 985.676C1235.84 986.18 1236.61 986.804 1237.21 987.548V979.268C1237.21 979.028 1237.28 978.836 1237.42 978.692C1237.59 978.524 1237.8 978.44 1238.04 978.44H1239.76C1240 978.44 1240.2 978.524 1240.34 978.692C1240.51 978.836 1240.59 979.028 1240.59 979.268V1003.17C1240.59 1003.41 1240.51 1003.62 1240.34 1003.78C1240.2 1003.93 1240 1004 1239.76 1004H1238.14C1237.88 1004 1237.68 1003.93 1237.53 1003.78C1237.39 1003.62 1237.32 1003.41 1237.32 1003.17V1001.66C1236.72 1002.43 1235.94 1003.08 1234.98 1003.6C1234.02 1004.11 1232.82 1004.36 1231.38 1004.36ZM1232.13 1001.44C1233.33 1001.44 1234.29 1001.17 1235.01 1000.62C1235.73 1000.06 1236.27 999.368 1236.63 998.528C1236.99 997.664 1237.18 996.788 1237.21 995.9C1237.23 995.516 1237.24 995.06 1237.24 994.532C1237.24 993.98 1237.23 993.512 1237.21 993.128C1237.18 992.288 1236.98 991.46 1236.6 990.644C1236.24 989.828 1235.68 989.156 1234.94 988.628C1234.22 988.1 1233.28 987.836 1232.13 987.836C1230.91 987.836 1229.94 988.112 1229.22 988.664C1228.5 989.192 1227.98 989.9 1227.67 990.788C1227.36 991.652 1227.18 992.588 1227.13 993.596C1227.1 994.292 1227.1 994.988 1227.13 995.684C1227.18 996.692 1227.36 997.64 1227.67 998.528C1227.98 999.392 1228.5 1000.1 1229.22 1000.65C1229.94 1001.18 1230.91 1001.44 1232.13 1001.44ZM1253.61 1004.36C1251.79 1004.36 1250.27 1004.01 1249.04 1003.32C1247.82 1002.62 1246.88 1001.66 1246.23 1000.44C1245.59 999.188 1245.23 997.772 1245.15 996.188C1245.13 995.78 1245.12 995.264 1245.12 994.64C1245.12 993.992 1245.13 993.476 1245.15 993.092C1245.23 991.484 1245.59 990.068 1246.23 988.844C1246.91 987.62 1247.85 986.66 1249.08 985.964C1250.3 985.268 1251.81 984.92 1253.61 984.92C1255.41 984.92 1256.93 985.268 1258.15 985.964C1259.37 986.66 1260.31 987.62 1260.96 988.844C1261.63 990.068 1262 991.484 1262.07 993.092C1262.1 993.476 1262.11 993.992 1262.11 994.64C1262.11 995.264 1262.1 995.78 1262.07 996.188C1262 997.772 1261.64 999.188 1260.99 1000.44C1260.35 1001.66 1259.41 1002.62 1258.19 1003.32C1256.96 1004.01 1255.44 1004.36 1253.61 1004.36ZM1253.61 1001.59C1255.1 1001.59 1256.29 1001.12 1257.18 1000.18C1258.07 999.224 1258.55 997.832 1258.62 996.008C1258.64 995.648 1258.65 995.192 1258.65 994.64C1258.65 994.088 1258.64 993.632 1258.62 993.272C1258.55 991.448 1258.07 990.068 1257.18 989.132C1256.29 988.172 1255.1 987.692 1253.61 987.692C1252.13 987.692 1250.93 988.172 1250.01 989.132C1249.13 990.068 1248.66 991.448 1248.61 993.272C1248.59 993.632 1248.57 994.088 1248.57 994.64C1248.57 995.192 1248.59 995.648 1248.61 996.008C1248.66 997.832 1249.13 999.224 1250.01 1000.18C1250.93 1001.12 1252.13 1001.59 1253.61 1001.59ZM1282.28 1004.36C1280.96 1004.36 1279.82 1004.13 1278.86 1003.68C1277.9 1003.2 1277.11 1002.56 1276.49 1001.77C1275.89 1000.95 1275.43 1000.03 1275.12 998.996C1274.83 997.964 1274.66 996.872 1274.61 995.72C1274.59 995.336 1274.58 994.976 1274.58 994.64C1274.58 994.304 1274.59 993.944 1274.61 993.56C1274.66 992.432 1274.83 991.352 1275.12 990.32C1275.43 989.288 1275.89 988.364 1276.49 987.548C1277.11 986.732 1277.9 986.096 1278.86 985.64C1279.82 985.16 1280.96 984.92 1282.28 984.92C1283.7 984.92 1284.87 985.172 1285.81 985.676C1286.75 986.18 1287.51 986.804 1288.11 987.548V979.268C1288.11 979.028 1288.19 978.836 1288.33 978.692C1288.5 978.524 1288.7 978.44 1288.94 978.44H1290.67C1290.91 978.44 1291.1 978.524 1291.25 978.692C1291.41 978.836 1291.5 979.028 1291.5 979.268V1003.17C1291.5 1003.41 1291.41 1003.62 1291.25 1003.78C1291.1 1003.93 1290.91 1004 1290.67 1004H1289.05C1288.79 1004 1288.58 1003.93 1288.44 1003.78C1288.29 1003.62 1288.22 1003.41 1288.22 1003.17V1001.66C1287.62 1002.43 1286.84 1003.08 1285.88 1003.6C1284.92 1004.11 1283.72 1004.36 1282.28 1004.36ZM1283.04 1001.44C1284.24 1001.44 1285.2 1001.17 1285.92 1000.62C1286.64 1000.06 1287.18 999.368 1287.54 998.528C1287.9 997.664 1288.09 996.788 1288.11 995.9C1288.14 995.516 1288.15 995.06 1288.15 994.532C1288.15 993.98 1288.14 993.512 1288.11 993.128C1288.09 992.288 1287.89 991.46 1287.5 990.644C1287.14 989.828 1286.59 989.156 1285.85 988.628C1285.13 988.1 1284.19 987.836 1283.04 987.836C1281.81 987.836 1280.84 988.112 1280.12 988.664C1279.4 989.192 1278.89 989.9 1278.57 990.788C1278.26 991.652 1278.08 992.588 1278.03 993.596C1278.01 994.292 1278.01 994.988 1278.03 995.684C1278.08 996.692 1278.26 997.64 1278.57 998.528C1278.89 999.392 1279.4 1000.1 1280.12 1000.65C1280.84 1001.18 1281.81 1001.44 1283.04 1001.44ZM1302.07 1004.36C1300.87 1004.36 1299.78 1004.12 1298.8 1003.64C1297.81 1003.16 1297.02 1002.51 1296.42 1001.7C1295.82 1000.88 1295.52 999.956 1295.52 998.924C1295.52 997.268 1296.19 995.948 1297.54 994.964C1298.88 993.98 1300.63 993.332 1302.79 993.02L1308.16 992.264V991.22C1308.16 990.068 1307.82 989.168 1307.15 988.52C1306.5 987.872 1305.43 987.548 1303.94 987.548C1302.86 987.548 1301.99 987.764 1301.32 988.196C1300.67 988.628 1300.21 989.18 1299.95 989.852C1299.8 990.212 1299.55 990.392 1299.19 990.392H1297.57C1297.31 990.392 1297.1 990.32 1296.96 990.176C1296.84 990.008 1296.78 989.816 1296.78 989.6C1296.78 989.24 1296.91 988.796 1297.18 988.268C1297.46 987.74 1297.9 987.224 1298.47 986.72C1299.05 986.216 1299.78 985.796 1300.67 985.46C1301.58 985.1 1302.68 984.92 1303.98 984.92C1305.42 984.92 1306.63 985.112 1307.62 985.496C1308.6 985.856 1309.37 986.348 1309.92 986.972C1310.5 987.596 1310.9 988.304 1311.14 989.096C1311.41 989.888 1311.54 990.692 1311.54 991.508V1003.17C1311.54 1003.41 1311.46 1003.62 1311.29 1003.78C1311.14 1003.93 1310.95 1004 1310.71 1004H1309.06C1308.79 1004 1308.59 1003.93 1308.44 1003.78C1308.3 1003.62 1308.23 1003.41 1308.23 1003.17V1001.62C1307.92 1002.06 1307.5 1002.49 1306.97 1002.92C1306.44 1003.33 1305.78 1003.68 1304.99 1003.96C1304.2 1004.23 1303.22 1004.36 1302.07 1004.36ZM1302.83 1001.66C1303.81 1001.66 1304.71 1001.46 1305.53 1001.05C1306.34 1000.62 1306.98 999.956 1307.44 999.068C1307.92 998.18 1308.16 997.064 1308.16 995.72V994.712L1303.98 995.324C1302.28 995.564 1300.99 995.972 1300.13 996.548C1299.26 997.1 1298.83 997.808 1298.83 998.672C1298.83 999.344 1299.02 999.908 1299.41 1000.36C1299.82 1000.8 1300.32 1001.12 1300.92 1001.34C1301.54 1001.55 1302.18 1001.66 1302.83 1001.66ZM1323.55 1004.36C1322.23 1004.36 1321.09 1004.13 1320.13 1003.68C1319.17 1003.2 1318.38 1002.56 1317.76 1001.77C1317.16 1000.95 1316.7 1000.03 1316.39 998.996C1316.1 997.964 1315.93 996.872 1315.89 995.72C1315.86 995.336 1315.85 994.976 1315.85 994.64C1315.85 994.304 1315.86 993.944 1315.89 993.56C1315.93 992.432 1316.1 991.352 1316.39 990.32C1316.7 989.288 1317.16 988.364 1317.76 987.548C1318.38 986.732 1319.17 986.096 1320.13 985.64C1321.09 985.16 1322.23 984.92 1323.55 984.92C1324.97 984.92 1326.15 985.172 1327.08 985.676C1328.02 986.18 1328.79 986.804 1329.39 987.548V979.268C1329.39 979.028 1329.46 978.836 1329.6 978.692C1329.77 978.524 1329.97 978.44 1330.21 978.44H1331.94C1332.18 978.44 1332.37 978.524 1332.52 978.692C1332.69 978.836 1332.77 979.028 1332.77 979.268V1003.17C1332.77 1003.41 1332.69 1003.62 1332.52 1003.78C1332.37 1003.93 1332.18 1004 1331.94 1004H1330.32C1330.06 1004 1329.85 1003.93 1329.71 1003.78C1329.57 1003.62 1329.49 1003.41 1329.49 1003.17V1001.66C1328.89 1002.43 1328.11 1003.08 1327.15 1003.6C1326.19 1004.11 1324.99 1004.36 1323.55 1004.36ZM1324.31 1001.44C1325.51 1001.44 1326.47 1001.17 1327.19 1000.62C1327.91 1000.06 1328.45 999.368 1328.81 998.528C1329.17 997.664 1329.36 996.788 1329.39 995.9C1329.41 995.516 1329.42 995.06 1329.42 994.532C1329.42 993.98 1329.41 993.512 1329.39 993.128C1329.36 992.288 1329.16 991.46 1328.77 990.644C1328.41 989.828 1327.86 989.156 1327.12 988.628C1326.4 988.1 1325.46 987.836 1324.31 987.836C1323.09 987.836 1322.11 988.112 1321.39 988.664C1320.67 989.192 1320.16 989.9 1319.85 990.788C1319.53 991.652 1319.35 992.588 1319.31 993.596C1319.28 994.292 1319.28 994.988 1319.31 995.684C1319.35 996.692 1319.53 997.64 1319.85 998.528C1320.16 999.392 1320.67 1000.1 1321.39 1000.65C1322.11 1001.18 1323.09 1001.44 1324.31 1001.44ZM1345.79 1004.36C1343.97 1004.36 1342.44 1004.01 1341.22 1003.32C1340 1002.62 1339.06 1001.66 1338.41 1000.44C1337.76 999.188 1337.4 997.772 1337.33 996.188C1337.31 995.78 1337.3 995.264 1337.3 994.64C1337.3 993.992 1337.31 993.476 1337.33 993.092C1337.4 991.484 1337.76 990.068 1338.41 988.844C1339.08 987.62 1340.03 986.66 1341.26 985.964C1342.48 985.268 1343.99 984.92 1345.79 984.92C1347.59 984.92 1349.1 985.268 1350.33 985.964C1351.55 986.66 1352.49 987.62 1353.14 988.844C1353.81 990.068 1354.18 991.484 1354.25 993.092C1354.28 993.476 1354.29 993.992 1354.29 994.64C1354.29 995.264 1354.28 995.78 1354.25 996.188C1354.18 997.772 1353.82 999.188 1353.17 1000.44C1352.52 1001.66 1351.59 1002.62 1350.36 1003.32C1349.14 1004.01 1347.62 1004.36 1345.79 1004.36ZM1345.79 1001.59C1347.28 1001.59 1348.47 1001.12 1349.36 1000.18C1350.24 999.224 1350.72 997.832 1350.8 996.008C1350.82 995.648 1350.83 995.192 1350.83 994.64C1350.83 994.088 1350.82 993.632 1350.8 993.272C1350.72 991.448 1350.24 990.068 1349.36 989.132C1348.47 988.172 1347.28 987.692 1345.79 987.692C1344.3 987.692 1343.1 988.172 1342.19 989.132C1341.3 990.068 1340.84 991.448 1340.79 993.272C1340.76 993.632 1340.75 994.088 1340.75 994.64C1340.75 995.192 1340.76 995.648 1340.79 996.008C1340.84 997.832 1341.3 999.224 1342.19 1000.18C1343.1 1001.12 1344.3 1001.59 1345.79 1001.59ZM1365.28 1004.36C1363.93 1004.36 1362.78 1004.19 1361.82 1003.86C1360.86 1003.52 1360.08 1003.11 1359.48 1002.63C1358.88 1002.15 1358.42 1001.67 1358.11 1001.19C1357.82 1000.71 1357.67 1000.33 1357.64 1000.04C1357.62 999.776 1357.7 999.572 1357.9 999.428C1358.09 999.284 1358.28 999.212 1358.47 999.212H1360.06C1360.2 999.212 1360.31 999.236 1360.38 999.284C1360.48 999.308 1360.6 999.404 1360.74 999.572C1361.05 999.908 1361.4 1000.24 1361.78 1000.58C1362.17 1000.92 1362.64 1001.19 1363.19 1001.41C1363.76 1001.62 1364.47 1001.73 1365.31 1001.73C1366.54 1001.73 1367.54 1001.5 1368.34 1001.05C1369.13 1000.57 1369.52 999.872 1369.52 998.96C1369.52 998.36 1369.36 997.88 1369.02 997.52C1368.71 997.16 1368.13 996.836 1367.29 996.548C1366.48 996.26 1365.35 995.96 1363.91 995.648C1362.47 995.312 1361.33 994.904 1360.49 994.424C1359.65 993.92 1359.05 993.332 1358.69 992.66C1358.33 991.964 1358.15 991.184 1358.15 990.32C1358.15 989.432 1358.41 988.58 1358.94 987.764C1359.47 986.924 1360.24 986.24 1361.24 985.712C1362.28 985.184 1363.56 984.92 1365.1 984.92C1366.34 984.92 1367.41 985.076 1368.3 985.388C1369.19 985.7 1369.92 986.096 1370.5 986.576C1371.07 987.032 1371.5 987.488 1371.79 987.944C1372.08 988.4 1372.24 988.784 1372.26 989.096C1372.28 989.336 1372.21 989.54 1372.04 989.708C1371.88 989.852 1371.68 989.924 1371.47 989.924H1369.96C1369.79 989.924 1369.64 989.888 1369.52 989.816C1369.43 989.744 1369.33 989.66 1369.24 989.564C1369 989.252 1368.71 988.94 1368.37 988.628C1368.06 988.316 1367.64 988.064 1367.11 987.872C1366.61 987.656 1365.94 987.548 1365.1 987.548C1363.9 987.548 1363 987.8 1362.4 988.304C1361.8 988.808 1361.5 989.444 1361.5 990.212C1361.5 990.668 1361.63 991.076 1361.89 991.436C1362.16 991.796 1362.66 992.12 1363.4 992.408C1364.15 992.696 1365.25 993.008 1366.72 993.344C1368.3 993.656 1369.55 994.076 1370.46 994.604C1371.37 995.132 1372.02 995.744 1372.4 996.44C1372.79 997.136 1372.98 997.94 1372.98 998.852C1372.98 999.86 1372.68 1000.78 1372.08 1001.62C1371.5 1002.46 1370.64 1003.14 1369.49 1003.64C1368.36 1004.12 1366.96 1004.36 1365.28 1004.36ZM1393.42 1004.36C1390.95 1004.36 1388.98 1003.6 1387.52 1002.09C1386.06 1000.56 1385.25 998.468 1385.11 995.828C1385.08 995.516 1385.07 995.12 1385.07 994.64C1385.07 994.136 1385.08 993.728 1385.11 993.416C1385.2 991.712 1385.6 990.224 1386.3 988.952C1386.99 987.656 1387.94 986.66 1389.14 985.964C1390.36 985.268 1391.79 984.92 1393.42 984.92C1395.25 984.92 1396.77 985.304 1398 986.072C1399.24 986.84 1400.19 987.932 1400.84 989.348C1401.49 990.764 1401.81 992.42 1401.81 994.316V994.928C1401.81 995.192 1401.73 995.396 1401.56 995.54C1401.42 995.684 1401.22 995.756 1400.98 995.756H1388.53C1388.53 995.78 1388.53 995.828 1388.53 995.9C1388.53 995.972 1388.53 996.032 1388.53 996.08C1388.58 997.064 1388.79 997.988 1389.18 998.852C1389.56 999.692 1390.11 1000.38 1390.83 1000.9C1391.55 1001.43 1392.42 1001.7 1393.42 1001.7C1394.29 1001.7 1395.01 1001.56 1395.58 1001.3C1396.16 1001.04 1396.63 1000.75 1396.99 1000.44C1397.35 1000.1 1397.59 999.848 1397.71 999.68C1397.92 999.368 1398.09 999.188 1398.21 999.14C1398.33 999.068 1398.52 999.032 1398.79 999.032H1400.52C1400.76 999.032 1400.95 999.104 1401.09 999.248C1401.26 999.368 1401.33 999.548 1401.31 999.788C1401.28 1000.15 1401.09 1000.59 1400.73 1001.12C1400.37 1001.62 1399.86 1002.13 1399.18 1002.63C1398.51 1003.14 1397.7 1003.56 1396.74 1003.89C1395.78 1004.2 1394.67 1004.36 1393.42 1004.36ZM1388.53 993.272H1398.39V993.164C1398.39 992.084 1398.19 991.124 1397.78 990.284C1397.4 989.444 1396.83 988.784 1396.09 988.304C1395.34 987.8 1394.46 987.548 1393.42 987.548C1392.39 987.548 1391.5 987.8 1390.76 988.304C1390.04 988.784 1389.49 989.444 1389.1 990.284C1388.72 991.124 1388.53 992.084 1388.53 993.164V993.272ZM1406.95 1004C1406.71 1004 1406.5 1003.93 1406.33 1003.78C1406.19 1003.62 1406.12 1003.41 1406.12 1003.17V986.108C1406.12 985.868 1406.19 985.676 1406.33 985.532C1406.5 985.364 1406.71 985.28 1406.95 985.28H1408.57C1408.81 985.28 1409 985.364 1409.14 985.532C1409.31 985.676 1409.39 985.868 1409.39 986.108V987.368C1409.95 986.624 1410.64 986.036 1411.48 985.604C1412.32 985.148 1413.33 984.92 1414.51 984.92C1417.22 984.896 1419.14 986 1420.27 988.232C1420.82 987.224 1421.62 986.42 1422.68 985.82C1423.73 985.22 1424.93 984.92 1426.28 984.92C1427.53 984.92 1428.65 985.208 1429.66 985.784C1430.69 986.36 1431.5 987.236 1432.07 988.412C1432.67 989.564 1432.97 991.016 1432.97 992.768V1003.17C1432.97 1003.41 1432.89 1003.62 1432.72 1003.78C1432.58 1003.93 1432.39 1004 1432.15 1004H1430.45C1430.21 1004 1430.01 1003.93 1429.84 1003.78C1429.7 1003.62 1429.63 1003.41 1429.63 1003.17V993.092C1429.63 991.748 1429.43 990.692 1429.05 989.924C1428.67 989.156 1428.15 988.616 1427.5 988.304C1426.85 987.992 1426.15 987.836 1425.38 987.836C1424.75 987.836 1424.12 987.992 1423.47 988.304C1422.82 988.616 1422.28 989.156 1421.85 989.924C1421.44 990.692 1421.24 991.748 1421.24 993.092V1003.17C1421.24 1003.41 1421.15 1003.62 1420.99 1003.78C1420.84 1003.93 1420.65 1004 1420.41 1004H1418.72C1418.48 1004 1418.27 1003.93 1418.11 1003.78C1417.96 1003.62 1417.89 1003.41 1417.89 1003.17V993.092C1417.89 991.748 1417.69 990.692 1417.28 989.924C1416.87 989.156 1416.34 988.616 1415.69 988.304C1415.05 987.992 1414.36 987.836 1413.64 987.836C1413.02 987.836 1412.38 987.992 1411.73 988.304C1411.09 988.616 1410.55 989.156 1410.11 989.924C1409.71 990.692 1409.5 991.736 1409.5 993.056V1003.17C1409.5 1003.41 1409.42 1003.62 1409.25 1003.78C1409.11 1003.93 1408.91 1004 1408.67 1004H1406.95ZM1453.41 1004.36C1452.07 1004.36 1450.92 1004.19 1449.96 1003.86C1449 1003.52 1448.22 1003.11 1447.62 1002.63C1447.02 1002.15 1446.56 1001.67 1446.25 1001.19C1445.96 1000.71 1445.81 1000.33 1445.78 1000.04C1445.76 999.776 1445.84 999.572 1446.03 999.428C1446.23 999.284 1446.42 999.212 1446.61 999.212H1448.19C1448.34 999.212 1448.45 999.236 1448.52 999.284C1448.61 999.308 1448.73 999.404 1448.88 999.572C1449.19 999.908 1449.54 1000.24 1449.92 1000.58C1450.31 1000.92 1450.77 1001.19 1451.33 1001.41C1451.9 1001.62 1452.61 1001.73 1453.45 1001.73C1454.67 1001.73 1455.68 1001.5 1456.47 1001.05C1457.27 1000.57 1457.66 999.872 1457.66 998.96C1457.66 998.36 1457.49 997.88 1457.16 997.52C1456.85 997.16 1456.27 996.836 1455.43 996.548C1454.61 996.26 1453.49 995.96 1452.05 995.648C1450.61 995.312 1449.47 994.904 1448.63 994.424C1447.79 993.92 1447.19 993.332 1446.83 992.66C1446.47 991.964 1446.29 991.184 1446.29 990.32C1446.29 989.432 1446.55 988.58 1447.08 987.764C1447.61 986.924 1448.37 986.24 1449.38 985.712C1450.41 985.184 1451.7 984.92 1453.23 984.92C1454.48 984.92 1455.55 985.076 1456.44 985.388C1457.33 985.7 1458.06 986.096 1458.63 986.576C1459.21 987.032 1459.64 987.488 1459.93 987.944C1460.22 988.4 1460.37 988.784 1460.4 989.096C1460.42 989.336 1460.35 989.54 1460.18 989.708C1460.01 989.852 1459.82 989.924 1459.61 989.924H1458.09C1457.93 989.924 1457.78 989.888 1457.66 989.816C1457.57 989.744 1457.47 989.66 1457.37 989.564C1457.13 989.252 1456.85 988.94 1456.51 988.628C1456.2 988.316 1455.78 988.064 1455.25 987.872C1454.75 987.656 1454.07 987.548 1453.23 987.548C1452.03 987.548 1451.13 987.8 1450.53 988.304C1449.93 988.808 1449.63 989.444 1449.63 990.212C1449.63 990.668 1449.77 991.076 1450.03 991.436C1450.29 991.796 1450.8 992.12 1451.54 992.408C1452.29 992.696 1453.39 993.008 1454.85 993.344C1456.44 993.656 1457.69 994.076 1458.6 994.604C1459.51 995.132 1460.16 995.744 1460.54 996.44C1460.93 997.136 1461.12 997.94 1461.12 998.852C1461.12 999.86 1460.82 1000.78 1460.22 1001.62C1459.64 1002.46 1458.78 1003.14 1457.63 1003.64C1456.5 1004.12 1455.09 1004.36 1453.41 1004.36ZM1470.51 1004.36C1469.31 1004.36 1468.21 1004.12 1467.23 1003.64C1466.25 1003.16 1465.45 1002.51 1464.85 1001.7C1464.25 1000.88 1463.95 999.956 1463.95 998.924C1463.95 997.268 1464.63 995.948 1465.97 994.964C1467.31 993.98 1469.07 993.332 1471.23 993.02L1476.59 992.264V991.22C1476.59 990.068 1476.25 989.168 1475.58 988.52C1474.93 987.872 1473.87 987.548 1472.38 987.548C1471.3 987.548 1470.42 987.764 1469.75 988.196C1469.1 988.628 1468.65 989.18 1468.38 989.852C1468.24 990.212 1467.99 990.392 1467.63 990.392H1466.01C1465.74 990.392 1465.54 990.32 1465.39 990.176C1465.27 990.008 1465.21 989.816 1465.21 989.6C1465.21 989.24 1465.35 988.796 1465.61 988.268C1465.9 987.74 1466.33 987.224 1466.91 986.72C1467.48 986.216 1468.21 985.796 1469.1 985.46C1470.01 985.1 1471.12 984.92 1472.41 984.92C1473.85 984.92 1475.07 985.112 1476.05 985.496C1477.03 985.856 1477.8 986.348 1478.35 986.972C1478.93 987.596 1479.34 988.304 1479.58 989.096C1479.84 989.888 1479.97 990.692 1479.97 991.508V1003.17C1479.97 1003.41 1479.89 1003.62 1479.72 1003.78C1479.58 1003.93 1479.39 1004 1479.15 1004H1477.49C1477.23 1004 1477.02 1003.93 1476.88 1003.78C1476.73 1003.62 1476.66 1003.41 1476.66 1003.17V1001.62C1476.35 1002.06 1475.93 1002.49 1475.4 1002.92C1474.87 1003.33 1474.21 1003.68 1473.42 1003.96C1472.63 1004.23 1471.66 1004.36 1470.51 1004.36ZM1471.26 1001.66C1472.25 1001.66 1473.15 1001.46 1473.96 1001.05C1474.78 1000.62 1475.41 999.956 1475.87 999.068C1476.35 998.18 1476.59 997.064 1476.59 995.72V994.712L1472.41 995.324C1470.71 995.564 1469.43 995.972 1468.56 996.548C1467.7 997.1 1467.27 997.808 1467.27 998.672C1467.27 999.344 1467.46 999.908 1467.84 1000.36C1468.25 1000.8 1468.75 1001.12 1469.35 1001.34C1469.98 1001.55 1470.61 1001.66 1471.26 1001.66ZM1492.13 1004.36C1490.6 1004.36 1489.29 1004.02 1488.21 1003.35C1487.15 1002.66 1486.35 1001.7 1485.8 1000.47C1485.24 999.248 1484.97 997.844 1484.97 996.26V986.108C1484.97 985.868 1485.04 985.676 1485.18 985.532C1485.35 985.364 1485.56 985.28 1485.8 985.28H1487.6C1487.84 985.28 1488.03 985.364 1488.17 985.532C1488.34 985.676 1488.42 985.868 1488.42 986.108V996.08C1488.42 999.656 1489.98 1001.44 1493.1 1001.44C1494.59 1001.44 1495.78 1000.98 1496.67 1000.04C1497.58 999.08 1498.04 997.76 1498.04 996.08V986.108C1498.04 985.868 1498.11 985.676 1498.25 985.532C1498.42 985.364 1498.62 985.28 1498.86 985.28H1500.63C1500.89 985.28 1501.1 985.364 1501.24 985.532C1501.38 985.676 1501.46 985.868 1501.46 986.108V1003.17C1501.46 1003.41 1501.38 1003.62 1501.24 1003.78C1501.1 1003.93 1500.89 1004 1500.63 1004H1498.97C1498.73 1004 1498.53 1003.93 1498.36 1003.78C1498.22 1003.62 1498.14 1003.41 1498.14 1003.17V1001.59C1497.5 1002.43 1496.7 1003.1 1495.77 1003.6C1494.86 1004.11 1493.64 1004.36 1492.13 1004.36ZM1492.2 982.58C1491.82 982.58 1491.63 982.388 1491.63 982.004C1491.63 981.812 1491.69 981.656 1491.81 981.536L1494.51 978.296C1494.72 978.032 1494.92 977.864 1495.08 977.792C1495.25 977.696 1495.5 977.648 1495.84 977.648H1498.29C1498.74 977.648 1498.97 977.876 1498.97 978.332C1498.97 978.5 1498.91 978.644 1498.79 978.764L1494.62 982.184C1494.42 982.352 1494.24 982.46 1494.08 982.508C1493.91 982.556 1493.69 982.58 1493.43 982.58H1492.2ZM1513.64 1004.36C1512.32 1004.36 1511.18 1004.13 1510.22 1003.68C1509.26 1003.2 1508.47 1002.56 1507.85 1001.77C1507.25 1000.95 1506.79 1000.03 1506.48 998.996C1506.19 997.964 1506.02 996.872 1505.98 995.72C1505.95 995.336 1505.94 994.976 1505.94 994.64C1505.94 994.304 1505.95 993.944 1505.98 993.56C1506.02 992.432 1506.19 991.352 1506.48 990.32C1506.79 989.288 1507.25 988.364 1507.85 987.548C1508.47 986.732 1509.26 986.096 1510.22 985.64C1511.18 985.16 1512.32 984.92 1513.64 984.92C1515.06 984.92 1516.24 985.172 1517.17 985.676C1518.11 986.18 1518.88 986.804 1519.48 987.548V979.268C1519.48 979.028 1519.55 978.836 1519.69 978.692C1519.86 978.524 1520.06 978.44 1520.3 978.44H1522.03C1522.27 978.44 1522.46 978.524 1522.61 978.692C1522.78 978.836 1522.86 979.028 1522.86 979.268V1003.17C1522.86 1003.41 1522.78 1003.62 1522.61 1003.78C1522.46 1003.93 1522.27 1004 1522.03 1004H1520.41C1520.15 1004 1519.94 1003.93 1519.8 1003.78C1519.66 1003.62 1519.58 1003.41 1519.58 1003.17V1001.66C1518.98 1002.43 1518.2 1003.08 1517.24 1003.6C1516.28 1004.11 1515.08 1004.36 1513.64 1004.36ZM1514.4 1001.44C1515.6 1001.44 1516.56 1001.17 1517.28 1000.62C1518 1000.06 1518.54 999.368 1518.9 998.528C1519.26 997.664 1519.45 996.788 1519.48 995.9C1519.5 995.516 1519.51 995.06 1519.51 994.532C1519.51 993.98 1519.5 993.512 1519.48 993.128C1519.45 992.288 1519.25 991.46 1518.86 990.644C1518.5 989.828 1517.95 989.156 1517.21 988.628C1516.49 988.1 1515.55 987.836 1514.4 987.836C1513.18 987.836 1512.2 988.112 1511.48 988.664C1510.76 989.192 1510.25 989.9 1509.94 990.788C1509.62 991.652 1509.44 992.588 1509.4 993.596C1509.37 994.292 1509.37 994.988 1509.4 995.684C1509.44 996.692 1509.62 997.64 1509.94 998.528C1510.25 999.392 1510.76 1000.1 1511.48 1000.65C1512.2 1001.18 1513.18 1001.44 1514.4 1001.44ZM1535.67 1004.36C1533.19 1004.36 1531.23 1003.6 1529.76 1002.09C1528.3 1000.56 1527.49 998.468 1527.35 995.828C1527.33 995.516 1527.31 995.12 1527.31 994.64C1527.31 994.136 1527.33 993.728 1527.35 993.416C1527.45 991.712 1527.84 990.224 1528.54 988.952C1529.23 987.656 1530.18 986.66 1531.38 985.964C1532.61 985.268 1534.03 984.92 1535.67 984.92C1537.49 984.92 1539.01 985.304 1540.24 986.072C1541.49 986.84 1542.43 987.932 1543.08 989.348C1543.73 990.764 1544.05 992.42 1544.05 994.316V994.928C1544.05 995.192 1543.97 995.396 1543.8 995.54C1543.66 995.684 1543.47 995.756 1543.23 995.756H1530.77C1530.77 995.78 1530.77 995.828 1530.77 995.9C1530.77 995.972 1530.77 996.032 1530.77 996.08C1530.82 997.064 1531.03 997.988 1531.42 998.852C1531.8 999.692 1532.35 1000.38 1533.07 1000.9C1533.79 1001.43 1534.66 1001.7 1535.67 1001.7C1536.53 1001.7 1537.25 1001.56 1537.83 1001.3C1538.4 1001.04 1538.87 1000.75 1539.23 1000.44C1539.59 1000.1 1539.83 999.848 1539.95 999.68C1540.17 999.368 1540.33 999.188 1540.45 999.14C1540.57 999.068 1540.77 999.032 1541.03 999.032H1542.76C1543 999.032 1543.19 999.104 1543.33 999.248C1543.5 999.368 1543.57 999.548 1543.55 999.788C1543.53 1000.15 1543.33 1000.59 1542.97 1001.12C1542.61 1001.62 1542.1 1002.13 1541.43 1002.63C1540.75 1003.14 1539.94 1003.56 1538.98 1003.89C1538.02 1004.2 1536.91 1004.36 1535.67 1004.36ZM1530.77 993.272H1540.63V993.164C1540.63 992.084 1540.43 991.124 1540.02 990.284C1539.64 989.444 1539.07 988.784 1538.33 988.304C1537.59 987.8 1536.7 987.548 1535.67 987.548C1534.63 987.548 1533.75 987.8 1533 988.304C1532.28 988.784 1531.73 989.444 1531.35 990.284C1530.96 991.124 1530.77 992.084 1530.77 993.164V993.272Z" fill="#595A5C"/>
<defs>
<linearGradient id="paint0_linear_1_661" x1="2560" y1="0.000108629" x2="-169.129" y2="958.378" gradientUnits="userSpaceOnUse">
<stop stop-color="#040B1A"/>
<stop offset="1" stop-color="#010714"/>
</linearGradient>
<linearGradient id="paint1_linear_1_661" x1="1324.61" y1="591.928" x2="1216.36" y2="613.31" gradientUnits="userSpaceOnUse">
<stop stop-color="#026B99"/>
<stop offset="1" stop-color="#042363"/>
</linearGradient>
<linearGradient id="paint2_linear_1_661" x1="1430.99" y1="556.764" x2="1082.15" y2="638.656" gradientUnits="userSpaceOnUse">
<stop stop-color="#026B99"/>
<stop offset="1" stop-color="#042363"/>
</linearGradient>
<linearGradient id="paint3_linear_1_661" x1="1415.41" y1="461.066" x2="1138.82" y2="583.453" gradientUnits="userSpaceOnUse">
<stop stop-color="#66D1FF"/>
<stop offset="1" stop-color="#3B64B8"/>
</linearGradient>
<linearGradient id="paint4_linear_1_661" x1="1740" y1="915" x2="1739.36" y2="927.602" gradientUnits="userSpaceOnUse">
<stop stop-color="#026B99"/>
<stop offset="1" stop-color="#042363"/>
</linearGradient>
</defs>
</svg>
